<svg xmlns="http://www.w3.org/2000/svg" viewBox="0 0 180 180" width="180" height="180">
  <rect width="180" height="180" rx="38" fill="#1B3A6B"/>
  <!-- Corner cut -->
  <polygon points="130,0 180,0 180,50" fill="#3d7a8a" opacity="0.45"/>
  <!-- P spine -->
  <rect x="34" y="30" width="18" height="120" rx="2" fill="#f0ede8"/>
  <!-- P top bar -->
  <rect x="52" y="30" width="52" height="18" fill="#f0ede8"/>
  <!-- P mid bar -->
  <rect x="52" y="82" width="52" height="18" fill="#f0ede8"/>
  <!-- P right bar -->
  <rect x="104" y="30" width="18" height="70" fill="#f0ede8"/>
  <!-- Status dots — 10 systems 2x5 -->
  <circle cx="132" cy="114" r="6" fill="#5a9aaa"/>
  <circle cx="148" cy="114" r="6" fill="#5a9aaa"/>
  <circle cx="132" cy="128" r="6" fill="#5a9aaa"/>
  <circle cx="148" cy="128" r="6" fill="#5a9aaa"/>
  <circle cx="132" cy="142" r="6" fill="#5a9aaa"/>
  <circle cx="148" cy="142" r="6" fill="#5a9aaa"/>
  <circle cx="132" cy="156" r="6" fill="#3d7a8a" opacity="0.5"/>
  <circle cx="148" cy="156" r="6" fill="#3d7a8a" opacity="0.5"/>
  <circle cx="132" cy="170" r="6" fill="#3d7a8a" opacity="0.2"/>
  <circle cx="148" cy="170" r="6" fill="#3d7a8a" opacity="0.2"/>
  <!-- Bottom accent -->
  <line x1="34" y1="168" x2="96" y2="168" stroke="#3d7a8a" stroke-width="2" opacity="0.35" stroke-linecap="round"/>
  <line x1="96" y1="168" x2="118" y2="168" stroke="#5a9aaa" stroke-width="4" opacity="0.9" stroke-linecap="round"/>
</svg>
